<mxfile host="app.diagrams.net" modified="2023-10-05T10:12:48.404Z" agent="Mozilla/5.0 (X11; Linux x86_64) AppleWebKit/537.36 (KHTML, like Gecko) Chrome/114.0.0.0 Safari/537.36 Edg/114.0.1788.0" etag="7TsxO9Sy3OvoVl3NceWz" version="21.6.8" type="google">
  <diagram id="R2lEEEUBdFMjLlhIrx00" name="Page-1">
    <mxGraphModel dx="1062" dy="630" grid="1" gridSize="10" guides="1" tooltips="1" connect="1" arrows="1" fold="1" page="1" pageScale="1" pageWidth="850" pageHeight="1100" math="0" shadow="0" extFonts="Permanent Marker^https://fonts.googleapis.com/css?family=Permanent+Marker">
      <root>
        <mxCell id="0" />
        <mxCell id="1" parent="0" />
        <mxCell id="sPpGF1w8YgZh2u3XMLft-2" value="&lt;div style=&quot;&quot;&gt;&lt;span style=&quot;background-color: initial;&quot;&gt;Lock&lt;/span&gt;&lt;/div&gt;" style="html=1;whiteSpace=wrap;align=left;horizontal=1;verticalAlign=top;" vertex="1" parent="1">
          <mxGeometry x="640" y="720" width="190" height="135" as="geometry" />
        </mxCell>
        <mxCell id="sPpGF1w8YgZh2u3XMLft-1" value="Omni Lock" style="shape=module;align=left;spacingLeft=20;align=center;verticalAlign=top;whiteSpace=wrap;html=1;" vertex="1" parent="1">
          <mxGeometry x="670" y="750" width="140" height="90" as="geometry" />
        </mxCell>
        <mxCell id="sPpGF1w8YgZh2u3XMLft-3" value="&lt;div style=&quot;&quot;&gt;&lt;span style=&quot;background-color: initial;&quot;&gt;Server: Docker Compose&lt;/span&gt;&lt;/div&gt;" style="html=1;whiteSpace=wrap;align=left;horizontal=1;verticalAlign=top;" vertex="1" parent="1">
          <mxGeometry x="157" y="350" width="600" height="265" as="geometry" />
        </mxCell>
        <mxCell id="sPpGF1w8YgZh2u3XMLft-4" value="Omni Adaper" style="shape=module;align=left;spacingLeft=20;align=center;verticalAlign=top;whiteSpace=wrap;html=1;" vertex="1" parent="1">
          <mxGeometry x="600" y="510" width="140" height="90" as="geometry" />
        </mxCell>
        <mxCell id="sPpGF1w8YgZh2u3XMLft-5" value="" style="endArrow=classic;html=1;rounded=0;entryX=0.75;entryY=1;entryDx=0;entryDy=0;exitX=0.25;exitY=0;exitDx=0;exitDy=0;" edge="1" parent="1" source="sPpGF1w8YgZh2u3XMLft-1" target="sPpGF1w8YgZh2u3XMLft-4">
          <mxGeometry width="50" height="50" relative="1" as="geometry">
            <mxPoint x="650" y="670" as="sourcePoint" />
            <mxPoint x="810" y="677" as="targetPoint" />
          </mxGeometry>
        </mxCell>
        <mxCell id="sPpGF1w8YgZh2u3XMLft-6" value="9679" style="text;html=1;strokeColor=none;fillColor=none;align=center;verticalAlign=middle;whiteSpace=wrap;rounded=0;" vertex="1" parent="1">
          <mxGeometry x="674" y="575" width="60" height="30" as="geometry" />
        </mxCell>
        <mxCell id="sPpGF1w8YgZh2u3XMLft-10" value="8079" style="text;html=1;strokeColor=none;fillColor=none;align=center;verticalAlign=middle;whiteSpace=wrap;rounded=0;" vertex="1" parent="1">
          <mxGeometry x="596" y="548" width="60" height="30" as="geometry" />
        </mxCell>
        <mxCell id="sPpGF1w8YgZh2u3XMLft-11" value="Nginx" style="shape=module;align=left;spacingLeft=20;align=center;verticalAlign=top;whiteSpace=wrap;html=1;" vertex="1" parent="1">
          <mxGeometry x="400" y="510" width="140" height="90" as="geometry" />
        </mxCell>
        <mxCell id="sPpGF1w8YgZh2u3XMLft-14" value="8000" style="text;html=1;strokeColor=none;fillColor=none;align=center;verticalAlign=middle;whiteSpace=wrap;rounded=0;" vertex="1" parent="1">
          <mxGeometry x="405" y="578" width="60" height="30" as="geometry" />
        </mxCell>
        <mxCell id="sPpGF1w8YgZh2u3XMLft-15" value="" style="endArrow=classic;html=1;rounded=0;entryX=1;entryY=0.75;entryDx=0;entryDy=0;exitX=0;exitY=0.75;exitDx=10;exitDy=0;exitPerimeter=0;" edge="1" parent="1" source="sPpGF1w8YgZh2u3XMLft-4" target="sPpGF1w8YgZh2u3XMLft-11">
          <mxGeometry width="50" height="50" relative="1" as="geometry">
            <mxPoint x="430" y="690" as="sourcePoint" />
            <mxPoint x="480" y="640" as="targetPoint" />
          </mxGeometry>
        </mxCell>
        <mxCell id="sPpGF1w8YgZh2u3XMLft-16" value="8000" style="text;html=1;strokeColor=none;fillColor=none;align=center;verticalAlign=middle;whiteSpace=wrap;rounded=0;" vertex="1" parent="1">
          <mxGeometry x="494" y="563" width="60" height="30" as="geometry" />
        </mxCell>
        <mxCell id="sPpGF1w8YgZh2u3XMLft-17" value="" style="endArrow=classic;html=1;rounded=0;exitX=1;exitY=0.75;exitDx=0;exitDy=0;" edge="1" parent="1" source="sPpGF1w8YgZh2u3XMLft-35">
          <mxGeometry width="50" height="50" relative="1" as="geometry">
            <mxPoint x="540" y="563" as="sourcePoint" />
            <mxPoint x="610" y="563" as="targetPoint" />
            <Array as="points">
              <mxPoint x="560" y="458" />
              <mxPoint x="560" y="510" />
              <mxPoint x="560" y="563" />
            </Array>
          </mxGeometry>
        </mxCell>
        <mxCell id="sPpGF1w8YgZh2u3XMLft-18" value="TCP" style="text;html=1;strokeColor=none;fillColor=none;align=center;verticalAlign=middle;whiteSpace=wrap;rounded=0;" vertex="1" parent="1">
          <mxGeometry x="690" y="650" width="60" height="30" as="geometry" />
        </mxCell>
        <mxCell id="sPpGF1w8YgZh2u3XMLft-19" value="HTTP" style="text;html=1;strokeColor=none;fillColor=none;align=center;verticalAlign=middle;whiteSpace=wrap;rounded=0;" vertex="1" parent="1">
          <mxGeometry x="548" y="479" width="60" height="30" as="geometry" />
        </mxCell>
        <mxCell id="sPpGF1w8YgZh2u3XMLft-20" value="HTTP" style="text;html=1;strokeColor=none;fillColor=none;align=center;verticalAlign=middle;whiteSpace=wrap;rounded=0;" vertex="1" parent="1">
          <mxGeometry x="547" y="557" width="60" height="30" as="geometry" />
        </mxCell>
        <mxCell id="sPpGF1w8YgZh2u3XMLft-23" value="Postgres" style="text;html=1;strokeColor=none;fillColor=none;align=center;verticalAlign=middle;whiteSpace=wrap;rounded=0;" vertex="1" parent="1">
          <mxGeometry x="348" y="435" width="60" height="30" as="geometry" />
        </mxCell>
        <mxCell id="sPpGF1w8YgZh2u3XMLft-25" value="&lt;div style=&quot;&quot;&gt;UI: Admin&lt;/div&gt;" style="html=1;whiteSpace=wrap;align=left;horizontal=1;verticalAlign=top;" vertex="1" parent="1">
          <mxGeometry x="299" y="720" width="190" height="135" as="geometry" />
        </mxCell>
        <mxCell id="sPpGF1w8YgZh2u3XMLft-26" value="Angular" style="shape=module;align=left;spacingLeft=20;align=center;verticalAlign=top;whiteSpace=wrap;html=1;" vertex="1" parent="1">
          <mxGeometry x="329" y="750" width="140" height="90" as="geometry" />
        </mxCell>
        <mxCell id="sPpGF1w8YgZh2u3XMLft-27" value="" style="endArrow=classic;html=1;rounded=0;entryX=0.25;entryY=1;entryDx=0;entryDy=0;exitX=0.75;exitY=0;exitDx=0;exitDy=0;" edge="1" parent="1" source="sPpGF1w8YgZh2u3XMLft-26" target="sPpGF1w8YgZh2u3XMLft-11">
          <mxGeometry width="50" height="50" relative="1" as="geometry">
            <mxPoint x="490" y="690" as="sourcePoint" />
            <mxPoint x="510" y="700" as="targetPoint" />
          </mxGeometry>
        </mxCell>
        <mxCell id="sPpGF1w8YgZh2u3XMLft-28" value="HTTP" style="text;html=1;strokeColor=none;fillColor=none;align=center;verticalAlign=middle;whiteSpace=wrap;rounded=0;" vertex="1" parent="1">
          <mxGeometry x="423" y="650" width="60" height="30" as="geometry" />
        </mxCell>
        <mxCell id="sPpGF1w8YgZh2u3XMLft-29" value="Database" style="shape=module;align=left;spacingLeft=20;align=center;verticalAlign=top;whiteSpace=wrap;html=1;" vertex="1" parent="1">
          <mxGeometry x="200" y="390" width="140" height="90" as="geometry" />
        </mxCell>
        <mxCell id="sPpGF1w8YgZh2u3XMLft-30" value="5432" style="text;html=1;strokeColor=none;fillColor=none;align=center;verticalAlign=middle;whiteSpace=wrap;rounded=0;" vertex="1" parent="1">
          <mxGeometry x="295" y="443" width="60" height="30" as="geometry" />
        </mxCell>
        <mxCell id="sPpGF1w8YgZh2u3XMLft-35" value="Symfony Backend" style="shape=module;align=left;spacingLeft=20;align=center;verticalAlign=top;whiteSpace=wrap;html=1;" vertex="1" parent="1">
          <mxGeometry x="400" y="390" width="140" height="90" as="geometry" />
        </mxCell>
        <mxCell id="sPpGF1w8YgZh2u3XMLft-42" value="" style="endArrow=classic;html=1;rounded=0;exitX=0;exitY=0.75;exitDx=10;exitDy=0;exitPerimeter=0;entryX=1;entryY=0.75;entryDx=0;entryDy=0;" edge="1" parent="1" source="sPpGF1w8YgZh2u3XMLft-35" target="sPpGF1w8YgZh2u3XMLft-29">
          <mxGeometry width="50" height="50" relative="1" as="geometry">
            <mxPoint x="360" y="470" as="sourcePoint" />
            <mxPoint x="339.46666666666664" y="458" as="targetPoint" />
          </mxGeometry>
        </mxCell>
        <mxCell id="sPpGF1w8YgZh2u3XMLft-44" value="9000" style="text;html=1;strokeColor=none;fillColor=none;align=center;verticalAlign=middle;whiteSpace=wrap;rounded=0;" vertex="1" parent="1">
          <mxGeometry x="405" y="458" width="60" height="30" as="geometry" />
        </mxCell>
        <mxCell id="sPpGF1w8YgZh2u3XMLft-45" value="" style="endArrow=classic;html=1;rounded=0;exitX=0.75;exitY=0;exitDx=0;exitDy=0;entryX=0.75;entryY=1;entryDx=0;entryDy=0;" edge="1" parent="1">
          <mxGeometry width="50" height="50" relative="1" as="geometry">
            <mxPoint x="434.93" y="510" as="sourcePoint" />
            <mxPoint x="434.93" y="480" as="targetPoint" />
          </mxGeometry>
        </mxCell>
        <mxCell id="sPpGF1w8YgZh2u3XMLft-46" value="FPM" style="text;html=1;strokeColor=none;fillColor=none;align=center;verticalAlign=middle;whiteSpace=wrap;rounded=0;" vertex="1" parent="1">
          <mxGeometry x="420" y="483" width="60" height="30" as="geometry" />
        </mxCell>
      </root>
    </mxGraphModel>
  </diagram>
</mxfile>
